<?xml version="1.0" encoding="UTF-8"?>
<svg id="Capa_2" data-name="Capa 2" xmlns="http://www.w3.org/2000/svg" viewBox="0 0 700 143.36">
  <defs>
    <style>
      .cls-1 {
        fill: #939290;
      }
    </style>
  </defs>
  <g id="Capa_1-2" data-name="Capa 1">
    <path class="cls-1" d="M425.95,45.58c2.27,2.13,3.41,4.73,3.41,7.79s-1.31,5.74-3.93,7.76c-2.62,2.02-7.16,3.03-13.64,3.03h-8.23v-21.79h9.56c6.27,0,10.55,1.07,12.82,3.2ZM700,0v143.36H0V0h700ZM135.87,120.2l-41.43-60.81,39.65-36.87h-44.66l-35.17,36.91V22.52H20.67v97.68h33.58v-23.84l16.62-15.64,22.52,39.48h42.48ZM233.41,97.44h-57.97v-18.62h52.26v-20.56h-52.26v-14.24h56.34v-21.5h-89.99v97.68h91.62v-22.76ZM351.67,22.52h-32.29v54.04l-40.92-54.04h-31.35v97.68h31.58v-53.63l40.69,53.63h32.29V22.52ZM462.05,52.51c0-9.59-3.03-16.99-9.08-22.19-6.06-5.2-15.16-7.79-27.32-7.79h-55.82v97.68h33.73v-36.25h18.38c13.54,0,23.61-2.78,30.21-8.33,6.6-5.55,9.9-13.26,9.9-23.12ZM582.45,120.2l-40.83-97.68h-36.63l-40.84,97.68h34.28l5.3-16.13h38.12l5.44,16.13h35.16ZM682.54,22.52h-102.07v24.12h34.25v73.56h33.58V46.64h34.24v-24.12ZM511.02,82.96h23.87l-12-35.12-11.87,35.12Z"/>
  </g>
</svg>