<?xml version="1.0" encoding="UTF-8"?>
<svg id="Capa_2" data-name="Capa 2" xmlns="http://www.w3.org/2000/svg" viewBox="0 0 700 113.49">
  <defs>
    <style>
      .cls-1 {
        fill: #939290;
      }
    </style>
  </defs>
  <g id="Capa_1-2" data-name="Capa 1">
    <path class="cls-1" d="M27.41,1.25v66.48c0,6.65,1.65,11.76,4.98,15.35,3.32,3.59,8.19,5.39,14.6,5.39s11.33-1.8,14.77-5.39c3.42-3.59,5.14-8.7,5.14-15.35V1.25h27.45v66.33c0,9.93-2.14,18.32-6.43,25.17-4.27,6.87-10.03,12.04-17.25,15.52-7.23,3.48-15.27,5.22-24.15,5.22s-16.83-1.72-23.83-5.15c-7-3.43-12.54-8.59-16.6-15.52-4.07-6.91-6.09-15.33-6.09-25.24V1.25h27.45-.04ZM214.38,112.37h0V1.25h-27.45v68.86L141.03,1.25h-27.45v111.13h27.45V43.84l45.9,68.53h27.45ZM261.72,1.25h-27.45v111.13h27.45V1.25h0ZM284.19,27.26c-4.81,8.61-7.23,18.37-7.23,29.37s2.41,20.74,7.23,29.29,11.52,15.22,20.13,20.02c8.62,4.8,18.37,7.2,29.29,7.2,13.37,0,24.81-3.46,34.34-10.37,9.51-6.91,15.88-16.38,19.09-28.41h-30.16c-2.25,4.65-5.42,8.17-9.55,10.61-4.12,2.44-8.8,3.65-14.04,3.65-8.45,0-15.3-2.89-20.54-8.7-5.24-5.81-7.86-13.56-7.86-23.27s2.62-17.46,7.86-23.27c5.24-5.81,12.09-8.7,20.54-8.7,5.24,0,9.92,1.23,14.04,3.65,4.12,2.44,7.3,5.97,9.55,10.61h30.16c-3.21-12.02-9.57-21.53-19.09-28.49-9.53-6.96-20.97-10.44-34.34-10.44-10.92,0-20.67,2.4-29.29,7.2-8.6,4.8-15.32,11.5-20.13,20.1v-.04ZM431.35,91.47h.02V1.25h-27.45v111.13h63.39v-20.9h-35.96ZM550.59,92.73v.02l6.74,19.62h29.05L545.62,1.25h-31.78l-40.77,111.11h28.73l6.74-19.62h42.05ZM543.54,71.85h-27.77l13.8-40.69,13.97,40.69h0ZM672.07,8.21c-8.88-4.63-19.26-6.96-31.13-6.96h-42.22v111.11h42.22c11.78,0,22.12-2.31,31.06-6.96,8.93-4.63,15.84-11.17,20.71-19.62,4.87-8.43,7.3-17.99,7.3-28.96s-2.43-20.66-7.3-29.05c-4.87-8.39-11.74-14.89-20.62-19.55h-.02ZM663.43,80.53c-5.78,5.59-13.86,8.39-24.24,8.39h-13V24.35h13c10.38,0,18.46,2.86,24.24,8.56,5.78,5.7,8.67,13.67,8.67,23.91s-2.9,18.15-8.67,23.74v-.02Z"/>
  </g>
</svg>