<?xml version="1.0" encoding="UTF-8"?>
<svg id="Capa_2" data-name="Capa 2" xmlns="http://www.w3.org/2000/svg" viewBox="0 0 700 122.42">
  <defs>
    <style>
      .cls-1 {
        fill: #353f51;
      }
    </style>
  </defs>
  <g id="Capa_1-2" data-name="Capa 1">
    <path class="cls-1" d="M23.19,118.16c-6.93-2.84-12.48-7.03-16.62-12.59-4.15-5.56-6.34-12.25-6.57-20.09h31.05c.45,4.43,1.99,7.8,4.6,10.13s6.02,3.49,10.23,3.49,7.74-.99,10.23-2.97c2.51-1.99,3.75-4.73,3.75-8.25,0-2.95-.99-5.4-2.98-7.33s-4.44-3.53-7.34-4.77c-2.9-1.24-7.03-2.66-12.36-4.26-7.74-2.38-14.05-4.77-18.93-7.15-4.9-2.38-9.1-5.89-12.61-10.56C2.11,49.15.34,43.08.34,35.6.34,24.49,4.38,15.76,12.46,9.48,20.53,3.17,31.05.02,44,.02s23.83,3.15,31.9,9.46c8.07,6.3,12.4,15.07,12.97,26.3h-31.56c-.24-3.86-1.66-6.89-4.26-9.1-2.63-2.21-5.96-3.33-10.07-3.33-3.53,0-6.38.95-8.53,2.82-2.17,1.87-3.24,4.57-3.24,8.08,0,3.86,1.82,6.88,5.45,9.02,3.63,2.15,9.32,4.49,17.06,6.97,7.74,2.62,14.02,5.1,18.85,7.49,4.84,2.38,9,5.85,12.53,10.38,3.51,4.53,5.29,10.38,5.29,17.53s-1.74,13-5.21,18.56c-3.47,5.56-8.51,9.99-15.1,13.28-6.59,3.29-14.39,4.94-23.37,4.94s-16.6-1.42-23.53-4.26h.02ZM183.36,1.71h-29.16v81.36c0,4.31-.97,7.6-2.9,9.87-1.93,2.27-4.68,3.41-8.19,3.41-3.87,0-6.81-1.26-8.86-3.82-2.05-2.56-3.08-6.32-3.08-11.33h-29c0,13.18,3.81,23.32,11.43,30.48s18.3,10.72,30.36,10.72,21.63-3.39,28.74-10.2c7.11-6.82,10.66-16.53,10.66-29.12V1.71h0ZM226.67,118.14c6.93,2.84,14.55,4.26,23.53,4.26s16.78-1.65,23.37-4.94c6.59-3.29,11.63-7.72,15.1-13.28,3.47-5.56,5.21-11.41,5.21-18.56s-1.76-13-5.29-17.53c-3.53-4.53-7.7-8-12.53-10.38-4.84-2.38-11.11-4.87-18.85-7.49-7.74-2.48-13.42-4.83-17.06-6.97-3.63-2.15-5.45-5.16-5.45-9.02,0-3.51,1.09-6.21,3.24-8.08,2.15-1.87,4.99-2.82,8.53-2.82,4.11,0,7.44,1.12,10.07,3.33,2.61,2.21,4.03,5.24,4.26,9.1h31.56c-.57-11.23-4.9-20-12.97-26.3-8.07-6.3-18.93-9.46-31.9-9.46s-23.49,3.15-31.56,9.46c-8.07,6.28-12.1,15.01-12.1,26.12,0,7.51,1.76,13.57,5.29,18.22,3.51,4.67,7.72,8.18,12.61,10.56,4.88,2.38,11.19,4.77,18.93,7.15,5.33,1.6,9.48,3.01,12.36,4.26,2.88,1.24,5.33,2.84,7.32,4.77s2.98,4.37,2.98,7.33c0,3.53-1.24,6.26-3.75,8.25-2.49,1.99-6.02,2.97-10.23,2.97s-7.62-1.16-10.23-3.49c-2.61-2.32-4.15-5.69-4.6-10.13h-31.05c.24,7.84,2.43,14.54,6.57,20.09,4.15,5.56,9.69,9.75,16.62,12.59v-.02ZM349.37,3.19c4.05,2.14,7.17,5.15,9.39,9.01,2.22,3.86,3.33,8.31,3.33,13.36s-1.11,9.45-3.33,13.33-5.36,6.9-9.41,9.03c-4.07,2.14-8.77,3.22-14.13,3.22h-19.19V0h19.19c5.39,0,10.11,1.08,14.16,3.22v-.03ZM345.42,36.5c2.63-2.57,3.95-6.2,3.95-10.91s-1.32-8.37-3.95-10.99c-2.63-2.63-6.29-3.94-11.01-3.94h-5.91v29.73h5.91c4.72,0,8.38-1.29,11.01-3.86v-.03ZM395.2,51.14l-10.65-19.3h-2.99v19.3h-12.48V0h20.94c4.05,0,7.48.69,10.32,2.11,2.84,1.42,4.98,3.35,6.4,5.79,1.42,2.45,2.11,5.17,2.11,8.19,0,3.4-.95,6.43-2.89,9.11-1.93,2.68-4.75,4.56-8.51,5.69l11.81,20.26h-14.08.03ZM381.56,23.01h7.74c2.3,0,4-.57,5.16-1.67,1.13-1.11,1.7-2.7,1.7-4.74s-.57-3.47-1.7-4.58c-1.13-1.11-2.86-1.67-5.16-1.67h-7.74v12.66h0ZM460.61,0h-14.03l-9.85,21.42-9.93-21.42h-14.16l17.74,34.23v16.91h12.48v-16.91L460.61,0h0ZM536.15,0h.03-13.44l-7.45,37.22L506.51,0h-13.72l-9.13,37.22-7.38-37.22h-13.36l13,51.14h15.11l8.46-33.64,8.18,33.64h15.11l13.36-51.14h0ZM574.32,42.11h-19.11l-3.07,9.03h-13.08L557.61,0h14.44l18.54,51.14h-13.21l-3.07-9.03h0ZM571.1,32.48l-6.34-18.71-6.27,18.71h12.64-.03ZM608.7,41.52h0V0h-12.48v51.14h28.83v-9.63h-16.35ZM643.52,41.52h0V0h-12.48v51.14h28.83v-9.63h-16.35ZM357.11,121.62l-4.75-4.58c-4.72,3.6-10.37,5.38-16.94,5.38-3.95,0-7.38-.64-10.29-1.93s-5.16-3.11-6.76-5.46c-1.57-2.34-2.37-5.12-2.37-8.26s.85-6.1,2.58-8.7c1.73-2.6,4.31-4.71,7.76-6.38-1.26-1.54-2.17-3.04-2.71-4.48s-.8-2.99-.8-4.71c0-2.42.62-4.63,1.91-6.64,1.26-1.98,3.09-3.55,5.52-4.71,2.4-1.13,5.26-1.72,8.59-1.72s6.22.62,8.54,1.83c2.35,1.21,4.08,2.83,5.26,4.89,1.16,2.03,1.7,4.27,1.6,6.69h-11.76c.05-1.31-.28-2.32-.98-3.01-.7-.69-1.65-1.06-2.81-1.06s-2.14.33-2.91,1.03c-.77.67-1.16,1.54-1.16,2.63s.34,2.08.98,3.22c.64,1.11,1.7,2.39,3.09,3.86l12.48,12.17c.1-.23.23-.54.41-.88s.36-.72.54-1.16l2.71-4.58h12.48l-3.51,6.33c-1.32,2.86-2.81,5.59-4.51,8.16l12.33,12.1h-14.52v-.03h0ZM344.7,109.6l-11.37-10.99c-3.51,1.8-5.26,4.22-5.26,7.28,0,1.85.72,3.4,2.14,4.63,1.44,1.24,3.38,1.85,5.8,1.85,3.25,0,6.16-.93,8.69-2.78h0ZM428.5,70.5h.03-39.64v9.99h13.57v41.16h12.48v-41.16h13.57v-9.99h0ZM447.25,80.46v.03h18.9v-9.99h-31.39v51.14h31.39v-9.99h-18.9v-11.22h16.71v-9.63h-16.71v-10.35h0ZM505.64,121.62v.03h14.52l-16.94-25.35,16.27-25.79h-14.16l-9.05,15.44-10.29-15.44h-14.52l16.79,25.12-16.43,26h14.16l9.21-15.65,10.45,15.65h0ZM563.28,70.5h.03-39.64v9.99h13.57v41.16h12.48v-41.16h13.57v-9.99h0ZM581.82,70.5h-12.48v30.53c0,4.56.93,8.42,2.79,11.61,1.86,3.17,4.36,5.56,7.56,7.13,3.17,1.57,6.78,2.37,10.83,2.37s7.71-.8,10.99-2.39c3.28-1.6,5.91-3.96,7.84-7.13s2.91-7.03,2.91-11.58v-30.53h-12.48v30.6c0,3.06-.8,5.43-2.35,7.08s-3.79,2.47-6.71,2.47-5.13-.82-6.63-2.47c-1.52-1.67-2.27-4.02-2.27-7.08v-30.6h0ZM647.15,121.62l-10.65-19.3h-2.99v19.3h-12.48v-51.14h20.94c4.05,0,7.48.69,10.32,2.11,2.84,1.42,4.98,3.35,6.4,5.79s2.11,5.17,2.11,8.19c0,3.4-.95,6.43-2.89,9.11-1.93,2.68-4.75,4.56-8.51,5.69l11.81,20.26h-14.08.03ZM633.51,93.51h7.74c2.3,0,4-.57,5.16-1.67,1.13-1.11,1.7-2.7,1.7-4.74s-.57-3.47-1.7-4.58c-1.13-1.11-2.86-1.67-5.16-1.67h-7.74v12.66h0ZM681.1,80.46v.03h18.9v-9.99h-31.39v51.14h31.39v-9.99h-18.9v-11.22h16.71v-9.63h-16.71v-10.35h0Z"/>
  </g>
</svg>