<?xml version="1.0" encoding="UTF-8"?>
<svg id="Capa_2" data-name="Capa 2" xmlns="http://www.w3.org/2000/svg" viewBox="0 0 350 347.17">
  <defs>
    <style>
      .cls-1 {
        fill: #939290;
      }
    </style>
  </defs>
  <g id="Capa_1-2" data-name="Capa 1">
    <path id="Group_666" data-name="Group 666" class="cls-1" d="M76.8,186.26L184.24,0h0l162.8,282.44h-135.59l-55.36-96.18h-79.29ZM28.48,270.55h169.37l7.04,11.73H21.44l7.04-11.73h0ZM42.55,245.68h140.75l7.04,11.73H35.52l7.04-11.73h0ZM56.63,221.28h112.6l7.04,11.73H49.59l7.04-11.73h0ZM70.7,196.42h83.98l7.04,11.73h-97.59l6.57-11.73h0ZM53.49,345.55h-11.73l-4.69-11.26H15.95l-4.22,11.26H0l20.64-49.26h11.26l21.58,49.26ZM33.78,326.32l-7.51-18.77-7.04,18.77h14.54ZM96.65,327.72l10.32,3.28c-1.41,4.69-4.22,8.91-7.98,12.2-9.85,6.1-22.99,5.16-31.43-2.82-4.69-5.16-7.04-11.73-7.04-18.3-.47-7.04,1.88-14.08,7.04-19.24,4.69-4.69,11.26-7.04,17.83-7.04,5.63-.47,11.26,1.88,15.95,5.16,2.82,2.35,4.69,5.63,5.63,8.91l-10.79,2.35c-.47-2.35-1.88-4.69-3.75-6.1-2.35-1.41-4.69-2.35-7.04-2.35-3.75,0-7.04,1.41-9.38,3.75-2.82,3.75-4.22,8.45-3.75,12.67-.47,4.69.94,9.38,3.75,13.61,2.35,2.82,5.63,4.22,9.38,4.22,2.82,0,5.16-.94,7.51-2.35,1.41-2.35,2.81-5.16,3.75-7.98ZM117.29,321.16c0-4.22.47-8.91,2.35-12.67,1.41-2.35,2.82-4.69,5.16-6.57,1.88-1.88,4.22-3.75,7.04-4.69,3.28-1.41,7.51-1.88,11.26-1.88,7.04-.47,13.61,1.88,18.77,6.57,9.38,10.79,9.38,26.74,0,37.53-5.16,4.69-11.73,7.04-18.77,6.57-7.04.47-13.61-1.88-18.77-6.57-4.69-4.69-7.51-11.26-7.04-18.3ZM128.55,321.16c-.47,4.69.94,9.38,4.22,12.67,5.63,5.63,15.01,5.63,21.11,0,2.82-3.75,4.69-8.45,4.22-13.14.47-4.69-.94-8.91-4.22-12.67-6.1-5.63-15.48-5.63-21.58,0-2.82,3.75-4.22,8.45-3.75,13.14h0ZM180.63,296.29h10.79v26.74c0,2.82,0,5.63.47,8.45.47,1.88,1.41,3.75,3.28,4.69,2.35,1.41,4.69,1.88,7.04,1.88s4.69-.47,7.04-1.88c1.41-.94,2.35-2.35,2.82-4.22.47-2.82.47-5.63.47-8.45v-27.21h10.79v25.8c0,4.22,0,8.45-.94,12.67-.47,2.35-1.41,4.69-3.28,6.1-1.88,1.88-3.75,3.28-6.1,4.22-3.28.94-6.57,1.41-10.32,1.41s-7.98-.47-11.73-1.41c-2.35-.94-4.69-2.35-6.1-4.22-1.41-1.41-2.35-3.28-2.82-5.63-.94-4.22-1.41-8.45-.94-12.67l-.47-26.27ZM235.05,329.6l10.32-.94c.47,2.82,1.88,5.16,3.75,7.04,2.35,1.41,5.16,2.35,7.98,2.35s5.63-.47,7.98-1.88c1.41-.94,2.35-2.82,2.82-4.69-.47-1.41-.47-2.35-1.41-3.28s-2.35-1.88-3.75-2.35-4.22-.94-8.45-2.35c-4.22-.94-8.45-2.35-12.2-4.69-3.28-2.35-4.69-6.1-4.69-9.85,0-2.35.94-5.16,2.35-7.04,1.88-2.35,3.75-4.22,6.57-5.16,2.81-.94,6.57-1.41,10.32-1.41,5.16-.47,10.79.94,15.01,4.22,3.28,2.35,5.16,6.57,5.16,10.79l-10.79.47c-.47-2.35-1.41-4.22-2.82-5.63-1.88-1.41-4.22-1.88-6.57-1.88s-5.16.47-7.51,1.88c-.94.47-1.88,1.88-1.88,3.28s.47,2.35,1.41,2.82c3.28,1.88,6.57,2.82,9.85,3.28,3.75.94,7.98,1.88,11.73,3.75,2.35.94,4.22,2.82,6.1,5.16,2.82,4.69,2.82,11.26-.47,15.95-1.88,2.35-4.22,4.69-7.04,5.63-3.75,1.41-7.51,1.88-11.73,1.88-5.63.47-10.79-.94-15.48-4.22-3.75-3.75-6.1-8.45-6.57-13.14ZM302.61,345.55v-40.82h-15.95v-8.45h42.23v8.45h-15.95v41.29l-10.32-.47ZM339.21,345.55v-49.26h10.79v49.73h-10.79v-.47Z"/>
  </g>
</svg>