<svg id="Capa_2" data-name="Capa 2" xmlns="http://www.w3.org/2000/svg" viewBox="0 0 550 495">
  <defs>
    
  </defs>
  <g id="Capa_1-2" data-name="Capa 1">
    <g>
      <path fill="#d3c6b7" d="M287.66,141.99V40.01l-12.62-5.09-12.68,5.11v286.61l12.68,5.11,12.62-5.09v-101.99s48.58-19.58,48.58-19.58v136.89s-61.22,24.69-61.22,24.69l-61.24-24.69V24.69L275.01,0l61.22,24.69v136.89l-48.58-19.59ZM410.17,292.76v-136.37l-61.24-24.69-.02,34.92,12.68,5.11v160.02l96.74-39h-48.16ZM91.67,292.74l96.74,39.01v-200.05l12.68-5.11-.02-34.92-61.24,24.69v176.4l-48.17-.02Z"></path>
      <g>
        <path fill="#d3c6b7" d="M63.32,452.13c-2.28.39-4.72.75-7.32,1.07-2.21.26-4.77.5-7.66.73-2.9.23-5.94.34-9.12.34-5.66,0-10.9-.38-15.71-1.12-4.81-.75-8.96-2-12.44-3.76-3.48-1.76-6.2-4.06-8.15-6.93-1.95-2.86-2.93-6.41-2.93-10.64v-24.39c0-4.29.98-7.87,2.93-10.73,1.95-2.86,4.67-5.17,8.15-6.93,3.48-1.76,7.61-2.99,12.39-3.71,4.78-.72,10.03-1.07,15.76-1.07,2.28,0,4.8.08,7.56.24,2.76.16,5.38.38,7.85.63,2.47.26,4.54.51,6.2.73,1.66.23,2.49.41,2.49.54l-1.37,13.85c-2.67-.32-5.3-.65-7.9-.98-2.28-.19-4.67-.39-7.17-.59-2.51-.19-4.8-.29-6.88-.29-3.38,0-6.51.16-9.37.49-2.86.33-5.33.91-7.42,1.76-2.08.85-3.71,2.05-4.88,3.61-1.17,1.56-1.76,3.55-1.76,5.95v17.37c0,2.34.52,4.28,1.56,5.81,1.04,1.53,2.55,2.73,4.54,3.61,1.98.88,4.44,1.5,7.37,1.85,2.93.36,6.24.54,9.95.54,2.47,0,4.99-.1,7.56-.29,2.57-.2,4.93-.41,7.07-.63,2.15-.23,4.59-.54,7.32-.93l1.37,13.85ZM127.23,385.29c3.97,0,7.54.5,10.73,1.51,3.19,1.01,5.9,2.51,8.15,4.49,2.24,1.98,3.97,4.41,5.17,7.27,1.2,2.86,1.81,6.15,1.81,9.85v22.44c0,3.71-.6,6.99-1.81,9.85-1.2,2.86-2.93,5.29-5.17,7.27-2.24,1.98-4.96,3.48-8.15,4.49-3.19,1.01-6.77,1.51-10.73,1.51h-27.32c-3.97,0-7.55-.5-10.73-1.51-3.19-1.01-5.9-2.5-8.15-4.49-2.24-1.98-3.97-4.41-5.17-7.27-1.2-2.86-1.81-6.15-1.81-9.85v-22.44c0-3.71.6-6.99,1.81-9.85,1.2-2.86,2.93-5.28,5.17-7.27,2.24-1.98,4.96-3.48,8.15-4.49,3.19-1.01,6.76-1.51,10.73-1.51h27.32ZM136.5,430.86v-22.44c0-1.43-.16-2.67-.49-3.71-.33-1.04-.81-1.9-1.46-2.59-.65-.68-1.51-1.19-2.59-1.51-1.07-.32-2.33-.49-3.76-.49h-29.27c-1.43,0-2.68.16-3.76.49-1.07.33-1.94.81-2.59,1.46-.65.65-1.14,1.5-1.46,2.54-.33,1.04-.49,2.31-.49,3.8v22.54c0,1.43.16,2.67.49,3.71.32,1.04.83,1.89,1.51,2.54.68.65,1.54,1.14,2.59,1.46,1.04.33,2.28.49,3.71.49h29.27c1.43,0,2.68-.16,3.76-.49,1.07-.32,1.93-.81,2.59-1.46.65-.65,1.14-1.5,1.46-2.54.32-1.04.49-2.31.49-3.8ZM230.75,439.15v14.15h-62.93v-67.32h16.59v53.18h46.35ZM259.63,453.3h-16.59v-67.32h16.59v67.32ZM368.13,385.98v67.32h-16.59v-17.37l-.1-21.37-22.15,38.93h-14.15l-22.34-39.03v38.83h-16.59v-67.32h16.59l29.37,48.98,29.37-48.98h16.59ZM397.5,453.3h-17.95l15.22-49.86c.84-2.67,2.03-5.07,3.56-7.22,1.53-2.15,3.32-3.98,5.37-5.51,2.05-1.53,4.32-2.7,6.83-3.51,2.5-.81,5.15-1.22,7.95-1.22h21.95l20.59,67.32h-17.95l-3.12-10.73h-39.52l-2.93,10.73ZM403.65,430.86h33.17l-7.81-28.3h-12.1c-1.63,0-3.06.47-4.29,1.42-1.24.94-2.08,2.2-2.54,3.76l-6.44,23.12ZM550,385.98v67.32h-16.59l-44.59-45.57v45.57h-16.59v-67.32h16.59l44.59,45.57v-45.57h16.59Z"></path>
        <g>
          <path fill="#d3c6b7" d="M25.51,493.8c-.82.22-1.68.41-2.57.58-.8.14-1.71.28-2.74.4-1.03.12-2.07.18-3.14.18-1.62,0-3.17-.16-4.64-.47-1.47-.31-2.76-.82-3.86-1.5-1.1-.69-1.96-1.55-2.59-2.59s-.95-2.27-.98-3.7v-8.73c0-1.4.31-2.63.94-3.68s1.48-1.92,2.56-2.61c1.07-.69,2.35-1.2,3.82-1.52,1.47-.33,3.06-.49,4.75-.49.99,0,1.99.06,2.99.18,1,.12,1.91.26,2.74.4.82.14,1.49.28,1.99.4.51.12.76.19.76.22l-.33,2.94c-.85-.22-1.7-.4-2.57-.54-.77-.12-1.62-.24-2.54-.36-.92-.12-1.84-.18-2.75-.18-1.28,0-2.45.12-3.52.34-1.06.23-2.01.58-2.83,1.05-.82.47-1.45,1.07-1.88,1.79-.44.72-.65,1.57-.65,2.54l-.04,7.83c0,.99.24,1.86.71,2.59.47.74,1.11,1.33,1.92,1.78.81.45,1.74.77,2.81.98,1.06.21,2.21.31,3.44.31.92,0,1.84-.05,2.77-.14.93-.1,1.78-.21,2.56-.34.77-.13,1.63-.31,2.57-.53l.29,2.9Z"></path>
          <path fill="#d3c6b7" d="M48.2,469.81c1.28,0,2.46.18,3.55.53,1.09.35,2.04.86,2.84,1.52.81.66,1.45,1.47,1.92,2.43s.71,2.01.71,3.17v9.68c-.02,1.16-.27,2.21-.72,3.15-.46.94-1.09,1.76-1.9,2.46-.81.7-1.76,1.23-2.86,1.6-1.1.36-2.28.54-3.53.54h-6.49c-1.26,0-2.43-.18-3.53-.54-1.1-.36-2.05-.89-2.86-1.58-.81-.69-1.46-1.51-1.94-2.47-.48-.95-.72-2.02-.72-3.21l.04-9.64c0-1.18.24-2.25.71-3.19s1.11-1.74,1.92-2.39c.81-.65,1.76-1.16,2.86-1.52,1.1-.36,2.28-.54,3.53-.54h6.49ZM53.74,487.06l.04-9.53c-.02-.72-.18-1.39-.47-1.99-.29-.6-.7-1.11-1.23-1.52-.53-.41-1.15-.73-1.85-.94s-1.44-.33-2.21-.33h-6.2c-.8,0-1.54.11-2.23.33s-1.29.53-1.81.94c-.52.41-.92.91-1.21,1.5-.29.59-.44,1.26-.44,2.01l.04,9.53c-.02.75.11,1.43.42,2.05.3.62.71,1.13,1.23,1.54.52.41,1.14.73,1.85.96.71.23,1.43.34,2.16.34h6.16c.82,0,1.58-.11,2.28-.33.7-.22,1.3-.54,1.81-.98.51-.43.92-.95,1.23-1.56.31-.6.46-1.28.44-2.03Z"></path>
          <path fill="#d3c6b7" d="M89.55,469.85v25.01h-3.48l-16.31-19.82.04,19.82h-3.48v-25.01h3.52l16.24,19.93v-19.93h3.48Z"></path>
          <path fill="#d3c6b7" d="M117.75,473.83c-.94-.22-1.79-.39-2.54-.53-.75-.13-1.6-.25-2.56-.34-.95-.1-1.9-.14-2.84-.14-1.33,0-2.5.07-3.52.22s-1.85.39-2.5.74c-.65.35-1.15.8-1.5,1.34-.35.54-.51,1.2-.49,1.97.02.68.27,1.22.72,1.63.46.41,1.08.75,1.85,1.01.77.27,1.67.5,2.68.69,1.01.19,2.05.4,3.12.62,1.06.22,2.1.47,3.12.74,1.01.28,1.91.65,2.7,1.12.78.47,1.43,1.08,1.92,1.81.49.74.74,1.65.74,2.74-.05,1.23-.33,2.32-.83,3.26-.51.94-1.24,1.72-2.21,2.34-.97.62-2.16,1.09-3.59,1.43-1.43.34-3.06.51-4.89.51-1.16,0-2.27-.07-3.32-.2-1.05-.13-1.94-.26-2.66-.38-.92-.19-1.76-.39-2.54-.58l.33-2.97c.85.19,1.74.38,2.68.54.77.1,1.64.21,2.59.33.95.12,1.93.18,2.92.18,1.23,0,2.33-.07,3.3-.22.97-.14,1.78-.39,2.45-.73.66-.34,1.16-.77,1.5-1.3.34-.53.53-1.21.58-2.03,0-.7-.24-1.26-.73-1.69-.48-.42-1.12-.77-1.9-1.05-.79-.28-1.69-.51-2.72-.71-1.03-.19-2.07-.4-3.12-.62s-2.08-.47-3.08-.74c-1-.28-1.9-.64-2.7-1.09-.8-.45-1.44-1.03-1.92-1.76-.48-.73-.7-1.62-.65-2.68-.05-1.21.19-2.29.71-3.24s1.27-1.75,2.27-2.37c.99-.63,2.21-1.12,3.66-1.47,1.45-.35,3.12-.53,5-.53,1.11,0,2.16.06,3.15.18.99.12,1.87.26,2.63.4.76.14,1.6.33,2.52.54l-.33,3.01Z"></path>
          <path fill="#d3c6b7" d="M123.15,472.75v-2.9h24.28v2.9h-10.44v22.11h-3.41l-.04-22.11h-10.4Z"></path>
          <path fill="#d3c6b7" d="M167.51,469.85c1.21,0,2.32.16,3.33.47,1.01.31,1.87.77,2.57,1.36.7.59,1.23,1.34,1.59,2.23.36.89.54,1.92.54,3.08l.04,1.09c-.02,1.21-.24,2.26-.63,3.17-.4.91-.96,1.65-1.69,2.23-.72.58-1.58,1.01-2.55,1.3-.98.29-2.06.43-3.24.43h-10.87l.04,9.64h-3.48v-25.01h14.35ZM172.11,477.97v-.98c.02-1.47-.37-2.55-1.18-3.23-.81-.68-2.02-1.01-3.64-1.01h-10.66l-.04,9.57h10.69c1.62,0,2.83-.35,3.64-1.05.81-.7,1.2-1.8,1.18-3.3ZM175.52,494.86h-3.3v-3.8c0-1.01-.12-1.89-.36-2.61-.24-.72-.59-1.33-1.05-1.81-.46-.48-1.02-.84-1.69-1.07-.67-.23-1.38-.34-2.16-.34v-2.32c.68,0,1.37.07,2.08.2.71.13,1.38.34,2.01.63s1.22.65,1.78,1.09c.55.43,1.03.93,1.41,1.49.39.56.69,1.2.91,1.92.22.73.34,1.5.36,2.32v4.31Z"></path>
          <path fill="#d3c6b7" d="M208.39,469.85v17.25c.02,1.18-.22,2.26-.73,3.23s-1.17,1.78-1.97,2.43c-.81.65-1.76,1.17-2.84,1.54-1.09.38-2.22.56-3.41.56h-5.73c-1.16,0-2.3-.18-3.41-.54-1.11-.36-2.08-.88-2.92-1.56-.83-.68-1.5-1.5-2.01-2.48s-.77-2.04-.8-3.17l.04-17.25h3.41l.04,16.96c0,.77.17,1.48.51,2.12.34.64.79,1.18,1.36,1.63.57.45,1.25.79,2.05,1.03.8.24,1.61.36,2.43.36h4.42c.8,0,1.57-.11,2.32-.34.75-.23,1.4-.57,1.96-1.01.56-.45,1-.99,1.34-1.63.34-.64.52-1.36.54-2.16l-.04-16.96h3.44Z"></path>
          <path fill="#d3c6b7" d="M237.31,493.8c-.82.22-1.68.41-2.57.58-.8.14-1.71.28-2.74.4-1.03.12-2.07.18-3.14.18-1.62,0-3.17-.16-4.64-.47-1.47-.31-2.76-.82-3.86-1.5-1.1-.69-1.96-1.55-2.59-2.59s-.95-2.27-.98-3.7v-8.73c0-1.4.31-2.63.94-3.68s1.48-1.92,2.56-2.61c1.07-.69,2.35-1.2,3.82-1.52,1.47-.33,3.06-.49,4.75-.49.99,0,1.99.06,2.99.18,1,.12,1.91.26,2.74.4.82.14,1.49.28,1.99.4.51.12.76.19.76.22l-.33,2.94c-.85-.22-1.7-.4-2.57-.54-.77-.12-1.62-.24-2.54-.36-.92-.12-1.84-.18-2.75-.18-1.28,0-2.45.12-3.52.34-1.06.23-2.01.58-2.83,1.05-.82.47-1.45,1.07-1.88,1.79-.44.72-.65,1.57-.65,2.54l-.04,7.83c0,.99.24,1.86.71,2.59.47.74,1.11,1.33,1.92,1.78.81.45,1.74.77,2.81.98,1.06.21,2.21.31,3.44.31.92,0,1.84-.05,2.77-.14.93-.1,1.78-.21,2.56-.34.77-.13,1.63-.31,2.57-.53l.29,2.9Z"></path>
          <path fill="#d3c6b7" d="M240.5,472.75v-2.9h24.28v2.9h-10.44v22.11h-3.41l-.04-22.11h-10.4Z"></path>
          <path fill="#d3c6b7" d="M274.06,494.86h-3.44v-25.01h3.44v25.01Z"></path>
          <path fill="#d3c6b7" d="M298.63,469.81c1.28,0,2.46.18,3.55.53,1.09.35,2.04.86,2.84,1.52.81.66,1.45,1.47,1.92,2.43s.71,2.01.71,3.17v9.68c-.02,1.16-.27,2.21-.72,3.15-.46.94-1.09,1.76-1.9,2.46-.81.7-1.76,1.23-2.86,1.6-1.1.36-2.28.54-3.53.54h-6.49c-1.26,0-2.43-.18-3.53-.54-1.1-.36-2.05-.89-2.86-1.58-.81-.69-1.46-1.51-1.94-2.47-.48-.95-.72-2.02-.72-3.21l.04-9.64c0-1.18.24-2.25.71-3.19s1.11-1.74,1.92-2.39c.81-.65,1.76-1.16,2.86-1.52,1.1-.36,2.28-.54,3.53-.54h6.49ZM304.17,487.06l.04-9.53c-.02-.72-.18-1.39-.47-1.99-.29-.6-.7-1.11-1.23-1.52-.53-.41-1.15-.73-1.85-.94s-1.44-.33-2.21-.33h-6.2c-.8,0-1.54.11-2.23.33s-1.29.53-1.81.94c-.52.41-.92.91-1.21,1.5-.29.59-.44,1.26-.44,2.01l.04,9.53c-.02.75.11,1.43.42,2.05.3.62.71,1.13,1.23,1.54.52.41,1.14.73,1.85.96.71.23,1.43.34,2.16.34h6.16c.82,0,1.58-.11,2.28-.33.7-.22,1.3-.54,1.81-.98.51-.43.92-.95,1.23-1.56.31-.6.46-1.28.44-2.03Z"></path>
          <path fill="#d3c6b7" d="M339.98,469.85v25.01h-3.48l-16.31-19.82.04,19.82h-3.48v-25.01h3.52l16.24,19.93v-19.93h3.48Z"></path>
          <path fill="#d3c6b7" d="M383,473.83c-.94-.22-1.79-.39-2.54-.53-.75-.13-1.6-.25-2.56-.34-.95-.1-1.9-.14-2.84-.14-1.33,0-2.5.07-3.52.22s-1.85.39-2.5.74c-.65.35-1.15.8-1.5,1.34-.35.54-.51,1.2-.49,1.97.02.68.27,1.22.72,1.63.46.41,1.08.75,1.85,1.01.77.27,1.67.5,2.68.69,1.01.19,2.05.4,3.12.62,1.06.22,2.1.47,3.12.74,1.01.28,1.91.65,2.7,1.12.78.47,1.43,1.08,1.92,1.81.49.74.74,1.65.74,2.74-.05,1.23-.33,2.32-.83,3.26s-1.24,1.72-2.21,2.34c-.97.62-2.16,1.09-3.59,1.43-1.43.34-3.06.51-4.89.51-1.16,0-2.27-.07-3.32-.2-1.05-.13-1.94-.26-2.66-.38-.92-.19-1.76-.39-2.54-.58l.33-2.97c.85.19,1.74.38,2.68.54.77.1,1.64.21,2.59.33.95.12,1.93.18,2.92.18,1.23,0,2.33-.07,3.3-.22.97-.14,1.78-.39,2.45-.73.66-.34,1.16-.77,1.5-1.3.34-.53.53-1.21.58-2.03,0-.7-.24-1.26-.73-1.69-.48-.42-1.12-.77-1.9-1.05-.79-.28-1.69-.51-2.72-.71-1.03-.19-2.07-.4-3.12-.62s-2.08-.47-3.08-.74c-1-.28-1.9-.64-2.7-1.09-.8-.45-1.44-1.03-1.92-1.76-.48-.73-.7-1.62-.65-2.68-.05-1.21.19-2.29.71-3.24s1.27-1.75,2.27-2.37c.99-.63,2.21-1.12,3.66-1.47,1.45-.35,3.12-.53,5-.53,1.11,0,2.16.06,3.15.18.99.12,1.87.26,2.63.4.76.14,1.6.33,2.52.54l-.33,3.01Z"></path>
          <path fill="#d3c6b7" d="M396.59,472.75v8.15h17.21v2.86h-17.21v8.19h17.21v2.9h-20.69v-25.01h20.69v2.9h-17.21Z"></path>
          <path fill="#d3c6b7" d="M437.11,469.85c1.21,0,2.32.16,3.33.47,1.01.31,1.87.77,2.57,1.36.7.59,1.23,1.34,1.59,2.23.36.89.54,1.92.54,3.08l.04,1.09c-.02,1.21-.24,2.26-.63,3.17-.4.91-.96,1.65-1.69,2.23-.72.58-1.58,1.01-2.55,1.3-.98.29-2.06.43-3.24.43h-10.87l.04,9.64h-3.48v-25.01h14.35ZM441.71,477.97v-.98c.02-1.47-.37-2.55-1.18-3.23-.81-.68-2.02-1.01-3.64-1.01h-10.66l-.04,9.57h10.69c1.62,0,2.83-.35,3.64-1.05.81-.7,1.2-1.8,1.18-3.3ZM445.12,494.86h-3.3v-3.8c0-1.01-.12-1.89-.36-2.61-.24-.72-.59-1.33-1.05-1.81-.46-.48-1.02-.84-1.69-1.07-.67-.23-1.38-.34-2.16-.34v-2.32c.68,0,1.37.07,2.08.2.71.13,1.38.34,2.01.63s1.22.65,1.78,1.09c.55.43,1.03.93,1.41,1.49.39.56.69,1.2.91,1.92.22.73.34,1.5.36,2.32v4.31Z"></path>
          <path fill="#d3c6b7" d="M464,491.38h2.21l3.44-11.31,3.01-10.22h3.66l-3.04,10.22-4.49,14.79h-5.22c-1.28,0-2.4-.37-3.37-1.11-.97-.74-1.64-1.72-2.03-2.95l-3.3-10.73-3.12-10.22h3.73l2.9,10.22,2.83,9.2c.19.63.54,1.14,1.05,1.52.51.39,1.09.58,1.74.58Z"></path>
          <path fill="#d3c6b7" d="M486.8,494.86h-3.44v-25.01h3.44v25.01Z"></path>
          <path fill="#d3c6b7" d="M516.33,493.8c-.82.22-1.68.41-2.57.58-.8.14-1.71.28-2.74.4-1.03.12-2.07.18-3.14.18-1.62,0-3.17-.16-4.64-.47-1.47-.31-2.76-.82-3.86-1.5-1.1-.69-1.96-1.55-2.59-2.59-.63-1.04-.95-2.27-.98-3.7v-8.73c0-1.4.31-2.63.94-3.68s1.48-1.92,2.56-2.61c1.07-.69,2.35-1.2,3.82-1.52,1.47-.33,3.06-.49,4.75-.49.99,0,1.99.06,2.99.18,1,.12,1.91.26,2.74.4.82.14,1.49.28,1.99.4.51.12.76.19.76.22l-.33,2.94c-.85-.22-1.7-.4-2.57-.54-.77-.12-1.62-.24-2.54-.36-.92-.12-1.84-.18-2.75-.18-1.28,0-2.45.12-3.52.34-1.06.23-2.01.58-2.83,1.05-.82.47-1.45,1.07-1.88,1.79-.44.72-.65,1.57-.65,2.54l-.04,7.83c0,.99.24,1.86.71,2.59.47.74,1.11,1.33,1.92,1.78.81.45,1.74.77,2.81.98,1.06.21,2.21.31,3.44.31.92,0,1.84-.05,2.77-.14.93-.1,1.78-.21,2.56-.34.77-.13,1.63-.31,2.57-.53l.29,2.9Z"></path>
          <path fill="#d3c6b7" d="M527.79,472.75v8.15h17.21v2.86h-17.21v8.19h17.21v2.9h-20.69v-25.01h20.69v2.9h-17.21Z"></path>
        </g>
      </g>
    </g>
  </g>
</svg>