<?xml version="1.0"?>
<svg id="Capa_2" data-name="Capa 2" xmlns="http://www.w3.org/2000/svg" viewBox="0 0 1500 300">
  <defs>
    
  </defs>
  <g id="Capa_1-2" data-name="Capa 1">
    <g>
      <path class="cls-1" d="M160.36,116.18V32.73l-10.33-4.16-10.38,4.18v234.5l10.38,4.18,10.33-4.16v-83.45s39.74-16.02,39.74-16.02v112s-50.09,20.2-50.09,20.2l-50.1-20.2V20.2L150.01,0l50.09,20.2v112l-39.74-16.02ZM260.6,239.53v-111.57l-50.1-20.2-.02,28.57,10.38,4.18v130.93l79.15-31.91h-39.4ZM0,239.51l79.15,31.91V107.75l10.38-4.18-.02-28.57-50.1,20.2v144.32l-39.41-.02Z"></path>
      <g>
        <path class="cls-1" d="M468.62,175.7c-4.83.83-10,1.59-15.51,2.27-4.69.55-10.1,1.07-16.23,1.55-6.14.48-12.58.72-19.33.72-11.99,0-23.09-.79-33.29-2.38-10.2-1.58-18.99-4.24-26.36-7.96-7.38-3.72-13.13-8.61-17.27-14.68-4.14-6.06-6.2-13.58-6.2-22.54v-51.7c0-9.1,2.07-16.68,6.2-22.74,4.14-6.06,9.89-10.96,17.27-14.68,7.37-3.72,16.13-6.34,26.26-7.86,10.13-1.52,21.26-2.27,33.39-2.27,4.82,0,10.16.18,16.03.52,5.86.35,11.4.79,16.65,1.34,5.24.55,9.62,1.07,13.13,1.55,3.52.48,5.27.86,5.27,1.14l-2.89,29.36c-5.65-.69-11.24-1.38-16.75-2.07-4.83-.41-9.89-.83-15.2-1.24-5.31-.41-10.17-.62-14.58-.62-7.17,0-13.79.35-19.85,1.03-6.07.69-11.3,1.93-15.72,3.72-4.41,1.79-7.86,4.34-10.34,7.65-2.48,3.31-3.72,7.51-3.72,12.61v36.81c0,4.96,1.1,9.07,3.31,12.3,2.2,3.24,5.41,5.79,9.62,7.65,4.2,1.86,9.41,3.17,15.61,3.93,6.2.76,13.23,1.14,21.09,1.14,5.24,0,10.58-.21,16.03-.62,5.44-.41,10.44-.86,14.99-1.34,4.55-.48,9.72-1.14,15.51-1.96l2.89,29.36ZM604.05,34.06c8.41,0,15.99,1.07,22.75,3.2,6.75,2.14,12.51,5.31,17.27,9.51,4.76,4.21,8.41,9.34,10.96,15.4,2.55,6.07,3.83,13.03,3.83,20.88v47.56c0,7.86-1.28,14.82-3.83,20.88-2.55,6.07-6.2,11.2-10.96,15.4-4.76,4.21-10.51,7.38-17.27,9.51-6.76,2.14-14.34,3.21-22.75,3.21h-57.9c-8.41,0-15.99-1.07-22.75-3.21-6.76-2.14-12.51-5.31-17.27-9.51-4.76-4.2-8.41-9.34-10.96-15.4-2.55-6.06-3.83-13.03-3.83-20.88v-47.56c0-7.86,1.27-14.82,3.83-20.88,2.55-6.06,6.2-11.2,10.96-15.4,4.76-4.2,10.51-7.37,17.27-9.51,6.75-2.14,14.34-3.2,22.75-3.2h57.9ZM623.7,130.63v-47.56c0-3.03-.35-5.65-1.03-7.86-.69-2.2-1.73-4.03-3.1-5.48-1.38-1.45-3.21-2.51-5.48-3.21-2.27-.69-4.93-1.03-7.96-1.03h-62.03c-3.03,0-5.69.35-7.96,1.03-2.27.69-4.1,1.73-5.48,3.1-1.38,1.38-2.41,3.17-3.1,5.38-.69,2.21-1.03,4.89-1.03,8.06v47.77c0,3.03.34,5.65,1.03,7.86.69,2.21,1.76,4,3.21,5.38,1.45,1.38,3.27,2.41,5.48,3.1,2.2.69,4.82,1.03,7.86,1.03h62.03c3.03,0,5.69-.34,7.96-1.03,2.27-.69,4.1-1.72,5.48-3.1,1.38-1.38,2.41-3.17,3.1-5.38.69-2.2,1.03-4.89,1.03-8.06ZM823.44,148.2v29.98h-133.37V35.51h35.15v112.69h98.22ZM884.64,178.19h-35.15V35.51h35.15v142.68ZM1114.57,35.51v142.68h-35.15v-36.81l-.21-45.28-46.94,82.5h-29.98l-47.35-82.71v82.3h-35.15V35.51h35.15l62.24,103.8,62.24-103.8h35.15ZM1176.81,178.19h-38.05l32.26-105.66c1.79-5.65,4.31-10.75,7.55-15.3,3.24-4.55,7.03-8.44,11.37-11.68,4.34-3.24,9.17-5.72,14.47-7.44,5.31-1.72,10.92-2.58,16.85-2.58h46.52l43.63,142.68h-38.05l-6.62-22.75h-83.74l-6.2,22.75ZM1189.84,130.63h70.3l-16.54-59.97h-25.64c-3.45,0-6.48,1-9.1,3-2.62,2-4.41,4.65-5.38,7.96l-13.65,49.01ZM1500,35.51v142.68h-35.15l-94.5-96.56v96.56h-35.15V35.51h35.15l94.5,96.56V35.51h35.15Z"></path>
        <g>
          <path class="cls-1" d="M388.49,264.02c-1.74.46-3.56.87-5.45,1.23-1.69.31-3.62.59-5.8.84-2.18.26-4.39.38-6.64.38-3.43,0-6.71-.33-9.83-1-3.12-.66-5.85-1.73-8.18-3.19-2.33-1.46-4.16-3.29-5.49-5.49-1.33-2.2-2.02-4.81-2.07-7.83v-18.51c0-2.97.66-5.57,2-7.8,1.33-2.23,3.14-4.07,5.42-5.53,2.28-1.46,4.98-2.53,8.1-3.22,3.12-.69,6.48-1.04,10.06-1.04,2.1,0,4.21.13,6.34.38,2.12.26,4.06.54,5.8.85,1.74.31,3.15.59,4.22.84,1.08.26,1.61.41,1.61.46l-.69,6.22c-1.79-.46-3.61-.84-5.45-1.15-1.64-.26-3.43-.51-5.38-.77-1.95-.26-3.89-.38-5.84-.38-2.72,0-5.2.24-7.45.73-2.25.49-4.25,1.23-5.99,2.23-1.74,1-3.07,2.26-3.99,3.8-.92,1.53-1.38,3.33-1.38,5.38l-.08,16.59c0,2.1.5,3.93,1.5,5.49,1,1.56,2.36,2.82,4.07,3.76,1.71.95,3.7,1.64,5.95,2.07,2.25.43,4.69.65,7.3.65,1.94,0,3.9-.1,5.88-.31,1.97-.2,3.78-.45,5.42-.73,1.64-.28,3.46-.65,5.45-1.11l.62,6.15Z"></path>
          <path class="cls-1" d="M436.57,213.18c2.71,0,5.22.37,7.53,1.11,2.3.74,4.31,1.82,6.03,3.23,1.72,1.41,3.07,3.12,4.07,5.15,1,2.02,1.5,4.26,1.5,6.72v20.51c-.05,2.46-.56,4.69-1.54,6.68-.97,2-2.32,3.74-4.03,5.22-1.72,1.49-3.74,2.61-6.07,3.38-2.33.77-4.83,1.15-7.49,1.15h-13.75c-2.66,0-5.16-.38-7.49-1.15-2.33-.77-4.35-1.88-6.07-3.34-1.72-1.46-3.08-3.2-4.11-5.23-1.02-2.02-1.54-4.29-1.54-6.8l.08-20.43c0-2.51.5-4.76,1.5-6.76,1-2,2.35-3.68,4.07-5.07,1.72-1.38,3.74-2.46,6.07-3.22,2.33-.77,4.82-1.15,7.49-1.15h13.75ZM448.32,249.74l.08-20.2c-.05-1.53-.38-2.94-1-4.23-.61-1.28-1.49-2.35-2.61-3.22-1.13-.87-2.43-1.54-3.92-2-1.48-.46-3.05-.69-4.69-.69h-13.13c-1.69,0-3.26.23-4.72.69-1.46.46-2.74,1.13-3.84,2-1.1.87-1.96,1.94-2.57,3.19-.62,1.26-.92,2.68-.92,4.26l.08,20.2c-.05,1.59.24,3.03.88,4.34.64,1.31,1.51,2.4,2.61,3.26,1.1.87,2.41,1.55,3.92,2.04,1.51.49,3.03.73,4.57.73h13.06c1.74,0,3.35-.23,4.84-.69,1.48-.46,2.76-1.15,3.84-2.07,1.08-.92,1.94-2.02,2.61-3.3.66-1.28.97-2.71.92-4.3Z"></path>
          <path class="cls-1" d="M524.2,213.25v53h-7.37l-34.56-42.01.08,42.01h-7.37v-53h7.45l34.41,42.24v-42.24h7.37Z"></path>
          <path class="cls-1" d="M583.96,221.7c-2-.46-3.79-.83-5.38-1.11-1.59-.28-3.39-.53-5.42-.73-2.02-.2-4.03-.31-6.03-.31-2.82,0-5.3.15-7.45.46-2.15.31-3.92.83-5.3,1.57-1.38.74-2.44,1.69-3.19,2.84-.74,1.15-1.09,2.55-1.04,4.18.05,1.44.56,2.59,1.54,3.45.97.87,2.28,1.59,3.92,2.15,1.64.57,3.53,1.05,5.68,1.46,2.15.41,4.35.84,6.61,1.3,2.25.46,4.46.99,6.61,1.58,2.15.59,4.06,1.38,5.72,2.38,1.66,1,3.02,2.28,4.07,3.84,1.05,1.56,1.57,3.49,1.57,5.8-.1,2.61-.69,4.92-1.77,6.91-1.08,2-2.64,3.65-4.69,4.96-2.05,1.3-4.58,2.32-7.6,3.03-3.02.72-6.48,1.07-10.37,1.07-2.46,0-4.8-.14-7.03-.42-2.23-.28-4.11-.55-5.64-.8-1.95-.41-3.74-.82-5.38-1.23l.69-6.3c1.79.41,3.69.8,5.68,1.15,1.64.2,3.47.43,5.49.69,2.02.26,4.08.38,6.18.38,2.61,0,4.94-.15,6.99-.46,2.05-.31,3.78-.82,5.19-1.54,1.41-.72,2.47-1.64,3.19-2.76.72-1.12,1.12-2.56,1.23-4.3,0-1.48-.51-2.67-1.54-3.57-1.02-.89-2.37-1.64-4.03-2.23-1.67-.59-3.58-1.08-5.76-1.5-2.18-.41-4.38-.84-6.61-1.3s-4.4-.99-6.53-1.57c-2.13-.59-4.03-1.36-5.72-2.3-1.69-.95-3.05-2.19-4.07-3.72-1.02-1.54-1.48-3.43-1.38-5.69-.1-2.56.4-4.85,1.5-6.87,1.1-2.02,2.7-3.7,4.8-5.03,2.1-1.33,4.69-2.37,7.76-3.11,3.07-.74,6.61-1.11,10.6-1.11,2.36,0,4.58.13,6.68.38,2.1.26,3.95.54,5.57.85,1.61.31,3.39.69,5.34,1.15l-.69,6.38Z"></path>
          <path class="cls-1" d="M595.4,219.4v-6.15h51.46v6.15h-22.12v46.85h-7.22l-.08-46.85h-22.04Z"></path>
          <path class="cls-1" d="M689.41,213.25c2.56,0,4.92.34,7.07,1,2.15.66,3.97,1.63,5.45,2.88,1.48,1.26,2.61,2.83,3.38,4.73.77,1.9,1.15,4.07,1.15,6.53l.08,2.3c-.05,2.56-.5,4.8-1.35,6.72-.84,1.92-2.03,3.49-3.57,4.73-1.54,1.23-3.34,2.15-5.41,2.76-2.07.61-4.37.92-6.87.92h-23.04l.08,20.43h-7.37v-53h30.42ZM699.16,230.46v-2.07c.05-3.12-.78-5.4-2.5-6.84-1.72-1.44-4.29-2.15-7.72-2.15h-22.58l-.08,20.28h22.66c3.43,0,6-.74,7.72-2.23,1.71-1.49,2.55-3.82,2.5-6.99ZM706.38,266.25h-6.99v-8.06c0-2.15-.26-3.99-.77-5.53-.51-1.53-1.26-2.82-2.23-3.84-.97-1.03-2.16-1.78-3.57-2.27-1.41-.49-2.93-.73-4.57-.73v-4.92c1.43,0,2.9.14,4.42.42,1.51.28,2.93.73,4.26,1.34s2.59,1.38,3.76,2.3c1.18.92,2.17,1.97,2.99,3.15.82,1.18,1.46,2.53,1.92,4.07.46,1.54.72,3.18.77,4.92v9.14Z"></path>
          <path class="cls-1" d="M776.04,213.25v36.56c.05,2.51-.46,4.79-1.54,6.84-1.08,2.05-2.47,3.76-4.18,5.15-1.72,1.38-3.72,2.47-6.03,3.26-2.3.8-4.71,1.19-7.22,1.19h-12.13c-2.46,0-4.87-.38-7.22-1.15-2.36-.77-4.42-1.87-6.18-3.3-1.77-1.43-3.19-3.19-4.26-5.26-1.08-2.07-1.64-4.31-1.69-6.72l.08-36.56h7.22l.08,35.95c0,1.64.36,3.14,1.08,4.49.72,1.36,1.68,2.51,2.88,3.46,1.2.95,2.65,1.68,4.34,2.19,1.69.51,3.41.77,5.15.77h9.37c1.69,0,3.33-.24,4.92-.73,1.59-.49,2.97-1.21,4.15-2.15,1.18-.95,2.12-2.1,2.84-3.46.72-1.35,1.1-2.88,1.15-4.57l-.08-35.95h7.3Z"></path>
          <path class="cls-1" d="M837.34,264.02c-1.74.46-3.56.87-5.45,1.23-1.69.31-3.62.59-5.8.84-2.18.26-4.39.38-6.64.38-3.43,0-6.71-.33-9.83-1-3.12-.66-5.85-1.73-8.18-3.19-2.33-1.46-4.16-3.29-5.49-5.49-1.33-2.2-2.02-4.81-2.07-7.83v-18.51c0-2.97.66-5.57,2-7.8,1.33-2.23,3.14-4.07,5.42-5.53,2.28-1.46,4.98-2.53,8.1-3.22,3.12-.69,6.48-1.04,10.06-1.04,2.1,0,4.21.13,6.34.38,2.12.26,4.06.54,5.8.85,1.74.31,3.15.59,4.22.84,1.08.26,1.61.41,1.61.46l-.69,6.22c-1.79-.46-3.61-.84-5.45-1.15-1.64-.26-3.43-.51-5.38-.77-1.95-.26-3.89-.38-5.84-.38-2.72,0-5.2.24-7.45.73-2.25.49-4.25,1.23-5.99,2.23-1.74,1-3.07,2.26-3.99,3.8-.92,1.53-1.38,3.33-1.38,5.38l-.08,16.59c0,2.1.5,3.93,1.5,5.49,1,1.56,2.36,2.82,4.07,3.76,1.71.95,3.7,1.64,5.95,2.07,2.25.43,4.69.65,7.3.65,1.94,0,3.9-.1,5.88-.31,1.97-.2,3.78-.45,5.42-.73,1.64-.28,3.46-.65,5.45-1.11l.62,6.15Z"></path>
          <path class="cls-1" d="M844.09,219.4v-6.15h51.46v6.15h-22.12v46.85h-7.22l-.08-46.85h-22.04Z"></path>
          <path class="cls-1" d="M915.21,266.25h-7.3v-53h7.3v53Z"></path>
          <path class="cls-1" d="M967.29,213.18c2.71,0,5.22.37,7.53,1.11,2.3.74,4.31,1.82,6.03,3.23,1.72,1.41,3.07,3.12,4.07,5.15,1,2.02,1.5,4.26,1.5,6.72v20.51c-.05,2.46-.56,4.69-1.54,6.68-.97,2-2.32,3.74-4.03,5.22-1.72,1.49-3.74,2.61-6.07,3.38-2.33.77-4.83,1.15-7.49,1.15h-13.75c-2.66,0-5.16-.38-7.49-1.15-2.33-.77-4.35-1.88-6.07-3.34-1.72-1.46-3.08-3.2-4.11-5.23-1.02-2.02-1.54-4.29-1.54-6.8l.08-20.43c0-2.51.5-4.76,1.5-6.76s2.35-3.68,4.07-5.07c1.72-1.38,3.74-2.46,6.07-3.22,2.33-.77,4.82-1.15,7.49-1.15h13.75ZM979.04,249.74l.08-20.2c-.05-1.53-.38-2.94-1-4.23-.61-1.28-1.49-2.35-2.61-3.22-1.13-.87-2.43-1.54-3.92-2-1.48-.46-3.05-.69-4.69-.69h-13.13c-1.69,0-3.26.23-4.72.69-1.46.46-2.74,1.13-3.84,2-1.1.87-1.96,1.94-2.57,3.19-.62,1.26-.92,2.68-.92,4.26l.08,20.2c-.05,1.59.24,3.03.88,4.34.64,1.31,1.51,2.4,2.61,3.26,1.1.87,2.41,1.55,3.92,2.04,1.51.49,3.03.73,4.57.73h13.06c1.74,0,3.35-.23,4.84-.69,1.48-.46,2.76-1.15,3.84-2.07,1.08-.92,1.94-2.02,2.61-3.3.66-1.28.97-2.71.92-4.3Z"></path>
          <path class="cls-1" d="M1054.92,213.25v53h-7.37l-34.56-42.01.08,42.01h-7.37v-53h7.45l34.41,42.24v-42.24h7.37Z"></path>
          <path class="cls-1" d="M1146.09,221.7c-2-.46-3.79-.83-5.38-1.11-1.59-.28-3.39-.53-5.42-.73-2.02-.2-4.03-.31-6.03-.31-2.82,0-5.3.15-7.45.46-2.15.31-3.92.83-5.3,1.57-1.38.74-2.44,1.69-3.19,2.84-.74,1.15-1.09,2.55-1.04,4.18.05,1.44.56,2.59,1.54,3.45.97.87,2.28,1.59,3.92,2.15,1.64.57,3.53,1.05,5.68,1.46,2.15.41,4.35.84,6.61,1.3,2.25.46,4.46.99,6.61,1.58,2.15.59,4.06,1.38,5.72,2.38,1.66,1,3.02,2.28,4.07,3.84,1.05,1.56,1.57,3.49,1.57,5.8-.1,2.61-.69,4.92-1.77,6.91-1.08,2-2.64,3.65-4.69,4.96-2.05,1.3-4.58,2.32-7.6,3.03-3.02.72-6.48,1.07-10.37,1.07-2.46,0-4.8-.14-7.03-.42-2.23-.28-4.11-.55-5.64-.8-1.95-.41-3.74-.82-5.38-1.23l.69-6.3c1.79.41,3.69.8,5.68,1.15,1.64.2,3.47.43,5.49.69,2.02.26,4.08.38,6.18.38,2.61,0,4.94-.15,6.99-.46,2.05-.31,3.78-.82,5.19-1.54,1.41-.72,2.47-1.64,3.19-2.76.72-1.12,1.12-2.56,1.23-4.3,0-1.48-.51-2.67-1.54-3.57-1.02-.89-2.37-1.64-4.03-2.23-1.67-.59-3.58-1.08-5.76-1.5-2.18-.41-4.38-.84-6.61-1.3-2.23-.46-4.4-.99-6.53-1.57-2.13-.59-4.03-1.36-5.72-2.3-1.69-.95-3.05-2.19-4.07-3.72-1.02-1.54-1.48-3.43-1.38-5.69-.1-2.56.4-4.85,1.5-6.87,1.1-2.02,2.7-3.7,4.8-5.03,2.1-1.33,4.69-2.37,7.76-3.11,3.07-.74,6.61-1.11,10.6-1.11,2.36,0,4.58.13,6.68.38,2.1.26,3.95.54,5.57.85,1.61.31,3.39.69,5.34,1.15l-.69,6.38Z"></path>
          <path class="cls-1" d="M1174.89,219.4v17.28h36.48v6.07h-36.48v17.36h36.48v6.15h-43.86v-53h43.86v6.15h-36.48Z"></path>
          <path class="cls-1" d="M1260.76,213.25c2.56,0,4.92.34,7.07,1,2.15.66,3.97,1.63,5.45,2.88,1.48,1.26,2.61,2.83,3.38,4.73.77,1.9,1.15,4.07,1.15,6.53l.08,2.3c-.05,2.56-.5,4.8-1.35,6.72-.84,1.92-2.03,3.49-3.57,4.73-1.54,1.23-3.34,2.15-5.41,2.76-2.07.61-4.37.92-6.87.92h-23.04l.08,20.43h-7.37v-53h30.42ZM1270.51,230.46v-2.07c.05-3.12-.78-5.4-2.5-6.84-1.72-1.44-4.29-2.15-7.72-2.15h-22.58l-.08,20.28h22.66c3.43,0,6-.74,7.72-2.23,1.71-1.49,2.55-3.82,2.5-6.99ZM1277.73,266.25h-6.99v-8.06c0-2.15-.26-3.99-.77-5.53-.51-1.53-1.26-2.82-2.23-3.84-.97-1.03-2.16-1.78-3.57-2.27-1.41-.49-2.93-.73-4.57-.73v-4.92c1.43,0,2.9.14,4.42.42,1.51.28,2.93.73,4.26,1.34,1.33.61,2.59,1.38,3.76,2.3,1.18.92,2.17,1.97,2.99,3.15.82,1.18,1.46,2.53,1.92,4.07.46,1.54.72,3.18.77,4.92v9.14Z"></path>
          <path class="cls-1" d="M1317.75,258.88h4.69l7.3-23.96,6.38-21.66h7.76l-6.45,21.66-9.52,31.34h-11.06c-2.71,0-5.1-.78-7.14-2.34-2.05-1.56-3.48-3.65-4.3-6.26l-6.99-22.73-6.61-21.66h7.91l6.14,21.66,5.99,19.51c.41,1.33,1.15,2.41,2.23,3.22,1.08.82,2.3,1.23,3.69,1.23Z"></path>
          <path class="cls-1" d="M1366.05,266.25h-7.3v-53h7.3v53Z"></path>
          <path class="cls-1" d="M1428.65,264.02c-1.74.46-3.56.87-5.45,1.23-1.69.31-3.62.59-5.8.84-2.18.26-4.39.38-6.64.38-3.43,0-6.71-.33-9.83-1-3.12-.66-5.85-1.73-8.18-3.19-2.33-1.46-4.16-3.29-5.49-5.49-1.33-2.2-2.02-4.81-2.07-7.83v-18.51c0-2.97.66-5.57,2-7.8,1.33-2.23,3.14-4.07,5.42-5.53,2.28-1.46,4.98-2.53,8.1-3.22,3.12-.69,6.48-1.04,10.06-1.04,2.1,0,4.21.13,6.34.38,2.12.26,4.06.54,5.8.85,1.74.31,3.15.59,4.22.84,1.08.26,1.61.41,1.61.46l-.69,6.22c-1.79-.46-3.61-.84-5.45-1.15-1.64-.26-3.43-.51-5.38-.77-1.95-.26-3.89-.38-5.84-.38-2.72,0-5.2.24-7.45.73-2.25.49-4.25,1.23-5.99,2.23-1.74,1-3.07,2.26-3.99,3.8-.92,1.53-1.38,3.33-1.38,5.38l-.08,16.59c0,2.1.5,3.93,1.5,5.49,1,1.56,2.36,2.82,4.07,3.76,1.71.95,3.7,1.64,5.95,2.07,2.25.43,4.69.65,7.3.65,1.94,0,3.9-.1,5.88-.31,1.97-.2,3.78-.45,5.42-.73,1.64-.28,3.46-.65,5.45-1.11l.62,6.15Z"></path>
          <path class="cls-1" d="M1452.92,219.4v17.28h36.48v6.07h-36.48v17.36h36.48v6.15h-43.86v-53h43.86v6.15h-36.48Z"></path>
        </g>
      </g>
    </g>
  </g>
</svg>